<?xml version="1.0" standalone="no"?>
<!DOCTYPE svg PUBLIC "-//W3C//DTD SVG 20010904//EN"
 "http://www.w3.org/TR/2001/REC-SVG-20010904/DTD/svg10.dtd">
<svg version="1.0" xmlns="http://www.w3.org/2000/svg"
 width="128.000000pt" height="128.000000pt" viewBox="0 0 128.000000 128.000000"
 preserveAspectRatio="xMidYMid meet">

<g transform="translate(0.000000,128.000000) scale(0.100000,-0.100000)"
fill="#000000" stroke="none">
<path d="M565 1269 c-144 -21 -282 -125 -352 -265 l-38 -78 0 -131 c1 -121 3
-136 32 -211 37 -98 91 -193 174 -305 70 -94 238 -269 259 -269 21 0 189 175
259 269 83 112 137 207 174 305 29 75 31 90 32 211 l0 130 -38 78 c-94 192
-290 296 -502 266z m75 -255 c0 -41 -4 -54 -15 -54 -11 0 -15 13 -15 53 0 30
3 57 6 60 15 15 24 -8 24 -59z m50 -14 c0 -22 -4 -40 -10 -40 -5 0 -10 18 -10
40 0 22 5 40 10 40 6 0 10 -18 10 -40z m-110 -6 c0 -24 -4 -34 -12 -32 -24 8
-22 68 2 68 5 0 10 -16 10 -36z m270 -78 c0 -11 15 -16 53 -18 l52 -3 0 -84
c-1 -79 -2 -85 -28 -107 -19 -16 -40 -24 -67 -24 -32 0 -43 -6 -60 -30 l-21
-30 40 0 c35 0 41 -3 41 -22 0 -12 -10 -32 -22 -45 -21 -22 -26 -23 -215 -23
-180 0 -194 1 -213 20 -11 11 -20 31 -20 45 0 23 4 25 42 25 l41 0 -21 23
c-11 12 -29 40 -38 62 -17 42 -31 182 -21 209 6 14 36 16 232 16 190 0 225 -2
225 -14z"/>
<path d="M420 838 c0 -86 15 -132 57 -179 l35 -39 108 0 c94 0 111 3 134 21
47 37 66 89 66 179 l0 80 -200 0 -200 0 0 -62z"/>
<path d="M848 805 c-1 -36 -2 -73 -2 -82 -1 -28 31 -27 59 1 21 21 25 34 25
86 l0 60 -40 0 -40 0 -2 -65z"/>
<path d="M422 578 c4 -10 54 -14 195 -16 160 -2 192 0 203 13 11 13 -10 15
-195 15 -161 0 -206 -3 -203 -12z"/>
</g>
</svg>
